<?xml version="1.0" encoding="UTF-8" standalone="no"?>
<!-- Created with Inkscape (http://www.inkscape.org/) -->

<svg
   xmlns:dc="http://purl.org/dc/elements/1.1/"
   xmlns:cc="http://creativecommons.org/ns#"
   xmlns:rdf="http://www.w3.org/1999/02/22-rdf-syntax-ns#"
   xmlns:svg="http://www.w3.org/2000/svg"
   xmlns="http://www.w3.org/2000/svg"
   xmlns:sodipodi="http://sodipodi.sourceforge.net/DTD/sodipodi-0.dtd"
   xmlns:inkscape="http://www.inkscape.org/namespaces/inkscape"
   width="400"
   height="400"
   viewBox="0 0 400 400.00001"
   id="svg5465"
   version="1.1"
   inkscape:version="0.91 r13725"
   sodipodi:docname="atom.svg">
  <defs
     id="defs5467" />
  <sodipodi:namedview
     id="base"
     pagecolor="#ffffff"
     bordercolor="#666666"
     borderopacity="1.0"
     inkscape:pageopacity="0.0"
     inkscape:pageshadow="2"
     inkscape:zoom="0.90929255"
     inkscape:cx="56.01502"
     inkscape:cy="175.18495"
     inkscape:document-units="px"
     inkscape:current-layer="layer1"
     showgrid="false"
     units="px"
     showguides="false"
     inkscape:window-width="1280"
     inkscape:window-height="708"
     inkscape:window-x="0"
     inkscape:window-y="1"
     inkscape:window-maximized="1"
     inkscape:guide-bbox="true">
    <inkscape:grid
       type="xygrid"
       id="grid6013" />
    <sodipodi:guide
       position="200,290.00001"
       orientation="1,0"
       id="guide6034" />
    <sodipodi:guide
       position="0,200"
       orientation="0,1"
       id="guide6036" />
  </sodipodi:namedview>
  <metadata
     id="metadata5470">
    <rdf:RDF>
      <cc:Work
         rdf:about="">
        <dc:format>image/svg+xml</dc:format>
        <dc:type
           rdf:resource="http://purl.org/dc/dcmitype/StillImage" />
        <dc:title />
      </cc:Work>
    </rdf:RDF>
  </metadata>
  <g
     inkscape:label="Layer 1"
     inkscape:groupmode="layer"
     id="layer1"
     transform="translate(0,-652.36213)">
    <path
       id="path6144-2-1"
       transform="translate(0,652.36213)"
       style="opacity:1;fill:none;fill-opacity:1;stroke:#4d4d56;stroke-width:7.48828125;stroke-linecap:butt;stroke-linejoin:miter;stroke-miterlimit:4;stroke-dasharray:none;stroke-opacity:1"
       d="m 350.66211,28.076172 a 74.839023,237.26763 46.530994 0 0 -18.25195,1.53125 20.000006,20.000006 0 0 1 0.75,5.414062 20.000006,20.000006 0 0 1 -20,20 20.000006,20.000006 0 0 1 -18.70508,-12.949218 74.839023,237.26763 46.530994 0 0 -148.57617,106.123044 74.839023,237.26763 46.530994 0 0 -84.414066,97.5625 20.000006,20.000006 0 0 1 8.617187,16.43946 20.000006,20.000006 0 0 1 -20,20 20.000006,20.000006 0 0 1 -9.662109,-2.49415 74.839023,237.26763 46.530994 0 0 -11.806641,84.3418 A 74.839023,237.26763 46.530994 0 0 254.12109,251.80469 74.839023,237.26763 46.530994 0 0 371.38672,35.955078 74.839023,237.26763 46.530994 0 0 350.66211,28.076172 Z m -17.50115,6.945858 a 20.000006,20.000006 0 0 1 -20.00001,20 20.000006,20.000006 0 0 1 -20.00001,-20 20.000006,20.000006 0 0 1 20.00001,-20.00001 20.000006,20.000006 0 0 1 20.00001,20.00001 z M 56.736328,27.916016 a 233.56182,73.7491 44.555581 0 0 -22.933594,7.984375 233.56182,73.7491 44.555581 0 0 113.714846,215.919919 233.56182,73.7491 44.555581 0 0 218.67969,112.2793 233.56182,73.7491 44.555581 0 0 -1.19141,-62.17383 20.000006,20.000006 0 0 1 -8.79102,2.04883 20.000006,20.000006 0 0 1 -20,-20 20.000006,20.000006 0 0 1 11.01172,-17.86133 A 233.56182,73.7491 44.555581 0 0 252.48242,148.17969 233.56182,73.7491 44.555581 0 0 56.736328,27.916016 Z M 273.66965,199.99999 A 73.669655,190.4268 0 0 1 200,390.42677 73.669655,190.4268 0 0 1 126.33035,199.99999 73.669655,190.4268 0 0 1 200,9.57319 a 73.669655,190.4268 0 0 1 73.66965,190.4268 z m 102.54496,83.97406 a 20.000006,20.000006 0 0 1 -20.00001,20.00001 20.000006,20.000006 0 0 1 -20.00001,-20.00001 20.000006,20.000006 0 0 1 20.00001,-20 20.000006,20.000006 0 0 1 20.00001,20 z M 70.082388,262.1964 a 20.000006,20.000006 0 0 1 -20.000006,20.00001 20.000006,20.000006 0 0 1 -20.000006,-20.00001 20.000006,20.000006 0 0 1 20.000006,-20 20.000006,20.000006 0 0 1 20.000006,20 z M 220.00001,199.99999 A 20.000006,20.000006 0 0 1 200,220 a 20.000006,20.000006 0 0 1 -20.00001,-20.00001 20.000006,20.000006 0 0 1 20.00001,-20 20.000006,20.000006 0 0 1 20.00001,20 z" />
  </g>
</svg>
