<?xml version="1.0" encoding="UTF-8" standalone="no"?>
<!-- Created with Inkscape (http://www.inkscape.org/) -->

<svg
   xmlns:dc="http://purl.org/dc/elements/1.1/"
   xmlns:cc="http://creativecommons.org/ns#"
   xmlns:rdf="http://www.w3.org/1999/02/22-rdf-syntax-ns#"
   xmlns:svg="http://www.w3.org/2000/svg"
   xmlns="http://www.w3.org/2000/svg"
   xmlns:sodipodi="http://sodipodi.sourceforge.net/DTD/sodipodi-0.dtd"
   xmlns:inkscape="http://www.inkscape.org/namespaces/inkscape"
   id="svg2"
   version="1.1"
   inkscape:version="0.91 r13725"
   xml:space="preserve"
   width="990"
   height="765"
   viewBox="0 0 990 765"
   sodipodi:docname="logos-tm-charcoal.ai.svg"><metadata
     id="metadata8"><rdf:RDF><cc:Work
         rdf:about=""><dc:format>image/svg+xml</dc:format><dc:type
           rdf:resource="http://purl.org/dc/dcmitype/StillImage" /><dc:title></dc:title></cc:Work></rdf:RDF></metadata><defs
     id="defs6"><clipPath
       clipPathUnits="userSpaceOnUse"
       id="clipPath26"><path
         d="M 0,612 792,612 792,0 0,0 0,612 Z"
         id="path28"
         inkscape:connector-curvature="0" /></clipPath></defs><sodipodi:namedview
     pagecolor="#ffffff"
     bordercolor="#666666"
     borderopacity="1"
     objecttolerance="10"
     gridtolerance="10"
     guidetolerance="10"
     inkscape:pageopacity="0"
     inkscape:pageshadow="2"
     inkscape:window-width="1065"
     inkscape:window-height="646"
     id="namedview4"
     showgrid="false"
     inkscape:zoom="4"
     inkscape:cx="499.85495"
     inkscape:cy="194.10628"
     inkscape:window-x="0"
     inkscape:window-y="0"
     inkscape:window-maximized="0"
     inkscape:current-layer="g10" /><g
     id="g10"
     inkscape:groupmode="layer"
     inkscape:label="VTSLogo_Teal_Web"
     transform="matrix(1.25,0,0,-1.25,0,765)"><g
       id="g12"
       transform="translate(498.0881,266.4961)"><path
         d="m 0,0 -0.041,0.014 -1.013,-2.333 -0.345,0 -1.055,2.427 -0.04,-0.013 0,-2.414 -0.629,0 0,3.63 0.784,0 1.089,-2.636 0.04,0 1.095,2.636 0.744,0 0,-3.63 L 0,-2.319 0,0 Z m -3.752,0.757 -0.981,0 0,-3.076 -0.635,0 0,3.076 -0.98,0 0,0.554 2.596,0 0,-0.554 z"
         style="fill:#4d4d56;fill-opacity:1;fill-rule:nonzero;stroke:none"
         id="path14"
         inkscape:connector-curvature="0" /></g><g
       id="g16"
       transform="translate(298.011,257.6201)"><path
         d="m 0,0 0.258,-0.862 0.053,0 0.258,0.862 3.885,10.756 1.155,0 -4.827,-12.943 -1.004,0 -4.827,12.943 1.155,0 L 0,0 Z"
         style="fill:#4d4d56;fill-opacity:1;fill-rule:nonzero;stroke:none"
         id="path18"
         inkscape:connector-curvature="0" /></g><path
       d="m 305.772,255.433 -1.058,0 0,9.618 1.058,0 0,-9.618 z m 0,12.374 -1.058,0 0,1.493 1.058,0 0,-1.493 z"
       style="fill:#4d4d56;fill-opacity:1;fill-rule:nonzero;stroke:none"
       id="path20"
       inkscape:connector-curvature="0" /><g
       id="g22"><g
         id="g24"
         clip-path="url(#clipPath26)"><g
           id="g30"
           transform="translate(314.1109,257.8826)"><path
             d="m 0,0 c 0,0.449 -0.185,0.843 -0.556,1.18 -0.37,0.336 -1.038,0.611 -2.004,0.824 -1.15,0.249 -1.999,0.578 -2.547,0.987 -0.548,0.409 -0.822,0.987 -0.822,1.733 0,0.735 0.309,1.356 0.929,1.863 0.619,0.507 1.438,0.76 2.458,0.76 1.084,0 1.943,-0.268 2.578,-0.805 C 0.67,6.006 0.972,5.335 0.942,4.529 l -0.018,-0.053 -0.986,0 c 0,0.527 -0.224,0.986 -0.671,1.377 -0.448,0.392 -1.051,0.587 -1.809,0.587 -0.777,0 -1.359,-0.167 -1.747,-0.5 -0.388,-0.333 -0.582,-0.723 -0.582,-1.172 0,-0.442 0.167,-0.807 0.502,-1.096 C -4.034,3.383 -3.366,3.129 -2.365,2.911 -1.221,2.655 -0.364,2.306 0.204,1.863 0.773,1.42 1.058,0.818 1.058,0.057 c 0,-0.802 -0.325,-1.452 -0.974,-1.948 -0.648,-0.497 -1.506,-0.745 -2.573,-0.745 -1.168,0 -2.085,0.279 -2.751,0.836 -0.667,0.557 -0.983,1.22 -0.947,1.991 l 0.018,0.053 0.978,0 c 0.041,-0.69 0.324,-1.191 0.849,-1.504 0.524,-0.313 1.142,-0.469 1.853,-0.469 0.77,0 1.378,0.168 1.822,0.505 C -0.222,-0.887 0,-0.479 0,0"
             style="fill:#4d4d56;fill-opacity:1;fill-rule:nonzero;stroke:none"
             id="path32"
             inkscape:connector-curvature="0" /></g><g
           id="g34"
           transform="translate(323.5607,257.0068)"><path
             d="m 0,0 c -0.308,-0.563 -0.723,-0.997 -1.245,-1.302 -0.521,-0.305 -1.137,-0.458 -1.849,-0.458 -1.013,0 -1.807,0.344 -2.382,1.031 -0.575,0.688 -0.862,1.754 -0.862,3.2 l 0,5.574 1.067,0 0,-5.603 c 0,-1.175 0.2,-2.019 0.6,-2.529 0.4,-0.511 0.967,-0.766 1.702,-0.766 0.806,0 1.449,0.181 1.929,0.543 0.48,0.362 0.815,0.861 1.004,1.496 l 0,6.859 1.067,0 0,-9.618 -0.942,0 L 0,0 Z"
             style="fill:#4d4d56;fill-opacity:1;fill-rule:nonzero;stroke:none"
             id="path36"
             inkscape:connector-curvature="0" /></g><g
           id="g38"
           transform="translate(329.6235,256.189)"><path
             d="m 0,0 c 0.764,0 1.44,0.179 2.027,0.538 0.586,0.358 1.01,0.816 1.271,1.373 l 0,2.009 -2.142,0 C 0.19,3.92 -0.582,3.714 -1.16,3.302 -1.738,2.891 -2.027,2.379 -2.027,1.769 -2.027,1.247 -1.848,0.822 -1.489,0.493 -1.13,0.164 -0.634,0 0,0 M 3.494,-0.756 C 3.422,-0.43 3.372,-0.148 3.342,0.089 3.313,0.326 3.298,0.566 3.298,0.809 2.942,0.305 2.468,-0.113 1.876,-0.444 c -0.593,-0.332 -1.26,-0.498 -2,-0.498 -0.937,0 -1.664,0.249 -2.183,0.746 -0.518,0.498 -0.778,1.165 -0.778,2.001 0,0.888 0.384,1.6 1.152,2.133 0.767,0.533 1.803,0.8 3.106,0.8 l 2.125,0 0,1.191 C 3.298,6.617 3.077,7.156 2.636,7.547 2.194,7.938 1.576,8.134 0.782,8.134 0.041,8.134 -0.573,7.947 -1.062,7.574 -1.551,7.2 -1.796,6.744 -1.796,6.205 l -0.977,0.009 -0.018,0.053 c -0.036,0.717 0.292,1.359 0.982,1.925 0.69,0.566 1.569,0.849 2.636,0.849 1.061,0 1.914,-0.27 2.56,-0.809 0.646,-0.54 0.969,-1.313 0.969,-2.321 l 0,-4.729 c 0,-0.338 0.019,-0.666 0.058,-0.986 0.038,-0.32 0.102,-0.638 0.191,-0.952 l -1.111,0 z"
             style="fill:#4d4d56;fill-opacity:1;fill-rule:nonzero;stroke:none"
             id="path40"
             inkscape:connector-curvature="0" /></g><path
           d="m 337.642,255.433 -1.058,0 0,13.868 1.058,0 0,-13.868 z"
           style="fill:#4d4d56;fill-opacity:1;fill-rule:nonzero;stroke:none"
           id="path42"
           inkscape:connector-curvature="0" /><g
           id="g44"
           transform="translate(353.2528,267.4696)"><path
             d="m 0,0 -4.454,0 0,-12.036 -1.066,0 0,12.036 -4.454,0 0,0.907 L 0,0.907 0,0 Z"
             style="fill:#4d4d56;fill-opacity:1;fill-rule:nonzero;stroke:none"
             id="path46"
             inkscape:connector-curvature="0" /></g><g
           id="g48"
           transform="translate(355.7689,263.4072)"><path
             d="m 0,0 c 0.32,0.575 0.747,1.022 1.28,1.342 0.533,0.32 1.156,0.48 1.867,0.48 1.013,0 1.791,-0.314 2.333,-0.942 0.543,-0.628 0.814,-1.603 0.814,-2.925 l 0,-5.929 -1.067,0 0,5.959 C 5.227,-0.97 5.021,-0.22 4.609,0.234 4.197,0.688 3.63,0.916 2.907,0.916 2.178,0.916 1.569,0.724 1.08,0.341 0.591,-0.042 0.231,-0.551 0,-1.186 l 0,-6.788 -1.067,0 0,13.868 L 0,5.894 0,0 Z"
             style="fill:#4d4d56;fill-opacity:1;fill-rule:nonzero;stroke:none"
             id="path50"
             inkscape:connector-curvature="0" /></g><path
           d="m 365.663,255.433 -1.058,0 0,9.618 1.058,0 0,-9.618 z m 0,12.374 -1.058,0 0,1.493 1.058,0 0,-1.493 z"
           style="fill:#4d4d56;fill-opacity:1;fill-rule:nonzero;stroke:none"
           id="path52"
           inkscape:connector-curvature="0" /><g
           id="g54"
           transform="translate(369.1837,265.0517)"><path
             d="m 0,0 0.098,-1.68 c 0.308,0.593 0.724,1.05 1.249,1.373 0.524,0.323 1.145,0.485 1.862,0.485 1.043,0 1.837,-0.319 2.382,-0.956 0.546,-0.637 0.818,-1.631 0.818,-2.982 l 0,-5.858 -1.066,0 0,5.86 c 0,1.105 -0.206,1.886 -0.618,2.343 -0.412,0.457 -0.997,0.686 -1.756,0.686 -0.747,0 -1.356,-0.197 -1.827,-0.592 C 0.671,-1.716 0.332,-2.24 0.124,-2.893 l 0,-6.725 -1.066,0 0,9.618 L 0,0 Z"
             style="fill:#4d4d56;fill-opacity:1;fill-rule:nonzero;stroke:none"
             id="path56"
             inkscape:connector-curvature="0" /></g><g
           id="g58"
           transform="translate(380.3137,260.127)"><path
             d="m 0,0 -1.227,0 0,-4.694 -1.066,0 0,13.868 1.066,0 0,-8.267 1.12,0 3.574,4.018 1.244,0 L 4.729,4.88 0.88,0.546 5.129,-4.649 5.103,-4.694 3.885,-4.694 0,0 Z"
             style="fill:#4d4d56;fill-opacity:1;fill-rule:nonzero;stroke:none"
             id="path60"
             inkscape:connector-curvature="0" /></g><path
           d="m 387.781,255.433 -1.058,0 0,9.618 1.058,0 0,-9.618 z m 0,12.374 -1.058,0 0,1.493 1.058,0 0,-1.493 z"
           style="fill:#4d4d56;fill-opacity:1;fill-rule:nonzero;stroke:none"
           id="path62"
           inkscape:connector-curvature="0" /><g
           id="g64"
           transform="translate(391.3017,265.0517)"><path
             d="m 0,0 0.098,-1.68 c 0.308,0.593 0.724,1.05 1.249,1.373 0.524,0.323 1.145,0.485 1.862,0.485 1.043,0 1.837,-0.319 2.382,-0.956 0.546,-0.637 0.818,-1.631 0.818,-2.982 l 0,-5.858 -1.066,0 0,5.86 c 0,1.105 -0.206,1.886 -0.618,2.343 -0.412,0.457 -0.997,0.686 -1.756,0.686 -0.747,0 -1.356,-0.197 -1.827,-0.592 C 0.671,-1.716 0.332,-2.24 0.124,-2.893 l 0,-6.725 -1.066,0 0,9.618 L 0,0 Z"
             style="fill:#4d4d56;fill-opacity:1;fill-rule:nonzero;stroke:none"
             id="path66"
             inkscape:connector-curvature="0" /></g><g
           id="g68"
           transform="translate(400.7782,259.9749)"><path
             d="m 0,0 c 0,-1.161 0.237,-2.088 0.711,-2.781 0.474,-0.694 1.179,-1.04 2.116,-1.04 0.687,0 1.261,0.158 1.72,0.475 0.459,0.318 0.813,0.755 1.062,1.311 l 0,4.463 C 5.378,2.99 5.039,3.451 4.591,3.81 4.144,4.168 3.562,4.348 2.845,4.348 1.908,4.348 1.2,3.961 0.72,3.187 0.24,2.413 0,1.413 0,0.187 L 0,0 Z m -1.067,0.188 c 0,1.535 0.328,2.763 0.983,3.684 0.654,0.922 1.565,1.383 2.733,1.383 0.681,0 1.271,-0.15 1.769,-0.449 0.498,-0.3 0.91,-0.722 1.236,-1.267 l 0.124,1.538 0.898,0 0,-9.494 c 0,-1.239 -0.342,-2.216 -1.027,-2.934 -0.684,-0.717 -1.637,-1.075 -2.858,-1.075 -0.462,0 -0.954,0.056 -1.475,0.169 -0.522,0.112 -0.978,0.266 -1.369,0.462 l 0.275,0.898 c 0.379,-0.19 0.779,-0.334 1.2,-0.431 0.421,-0.098 0.871,-0.147 1.351,-0.147 0.937,0 1.644,0.27 2.121,0.809 0.477,0.539 0.715,1.289 0.715,2.249 l 0,1.209 C 5.283,-3.694 4.871,-4.069 4.374,-4.333 3.876,-4.596 3.295,-4.728 2.631,-4.728 c -1.155,0 -2.061,0.429 -2.715,1.289 -0.655,0.859 -0.983,2.006 -0.983,3.44 l 0,0.187 z"
             style="fill:#4d4d56;fill-opacity:1;fill-rule:nonzero;stroke:none"
             id="path70"
             inkscape:connector-curvature="0" /></g><g
           id="g72"
           transform="translate(422.4197,258.6118)"><path
             d="m 0,0 c 0,0.704 -0.264,1.279 -0.791,1.726 -0.528,0.447 -1.446,0.842 -2.756,1.185 -1.416,0.355 -2.489,0.818 -3.218,1.387 -0.729,0.568 -1.093,1.336 -1.093,2.302 0,0.99 0.407,1.796 1.222,2.418 0.815,0.622 1.862,0.933 3.142,0.933 1.334,0 2.409,-0.37 3.227,-1.111 C 0.551,8.099 0.948,7.195 0.924,6.129 l -0.026,-0.054 -0.978,0 c 0,0.866 -0.307,1.577 -0.92,2.134 -0.613,0.557 -1.445,0.835 -2.494,0.835 -1.037,0 -1.847,-0.231 -2.431,-0.693 C -6.509,7.889 -6.8,7.314 -6.8,6.627 -6.8,5.975 -6.531,5.431 -5.991,4.995 -5.452,4.56 -4.522,4.176 -3.2,3.844 -1.808,3.489 -0.748,3.009 -0.022,2.404 0.704,1.8 1.067,1.003 1.067,0.013 c 0,-1.031 -0.423,-1.852 -1.267,-2.463 -0.845,-0.61 -1.922,-0.915 -3.231,-0.915 -1.292,0 -2.42,0.324 -3.383,0.973 -0.963,0.649 -1.43,1.596 -1.4,2.84 l 0.018,0.054 0.978,0 c 0,-1.005 0.376,-1.749 1.129,-2.234 0.752,-0.484 1.638,-0.726 2.658,-0.726 1.025,0 1.853,0.224 2.484,0.674 C -0.316,-1.334 0,-0.74 0,0"
             style="fill:#4d4d56;fill-opacity:1;fill-rule:nonzero;stroke:none"
             id="path74"
             inkscape:connector-curvature="0" /></g><g
           id="g76"
           transform="translate(426.9714,267.5141)"><path
             d="m 0,0 0,-2.462 2.116,0 0,-0.872 -2.116,0 0,-6.267 c 0,-0.628 0.114,-1.074 0.342,-1.337 0.228,-0.264 0.532,-0.396 0.911,-0.396 0.172,0 0.34,0.007 0.503,0.022 0.163,0.015 0.351,0.04 0.564,0.076 l 0.16,-0.791 c -0.178,-0.077 -0.394,-0.137 -0.649,-0.178 -0.255,-0.042 -0.51,-0.062 -0.764,-0.062 -0.676,0 -1.202,0.213 -1.578,0.64 -0.377,0.426 -0.565,1.102 -0.565,2.026 l 0,6.267 -1.662,0 0,0.872 1.662,0 0,2.462 L 0,0 Z"
             style="fill:#4d4d56;fill-opacity:1;fill-rule:nonzero;stroke:none"
             id="path78"
             inkscape:connector-curvature="0" /></g><g
           id="g80"
           transform="translate(435.4079,264.1361)"><path
             d="m 0,0 -0.791,0.053 c -0.67,0 -1.219,-0.188 -1.649,-0.564 -0.43,-0.376 -0.737,-0.894 -0.92,-1.551 l 0,-6.641 -1.067,0 0,9.619 0.933,0 0.134,-1.6 0,-0.107 c 0.278,0.592 0.652,1.055 1.12,1.387 0.468,0.331 1.025,0.497 1.671,0.497 0.136,0 0.268,-0.01 0.396,-0.031 0.127,-0.02 0.232,-0.043 0.315,-0.066 L 0,0 Z"
             style="fill:#4d4d56;fill-opacity:1;fill-rule:nonzero;stroke:none"
             id="path82"
             inkscape:connector-curvature="0" /></g><g
           id="g84"
           transform="translate(438.6802,256.189)"><path
             d="m 0,0 c 0.764,0 1.44,0.179 2.027,0.538 0.586,0.358 1.01,0.816 1.271,1.373 l 0,2.009 -2.142,0 C 0.19,3.92 -0.582,3.714 -1.16,3.302 -1.738,2.891 -2.027,2.379 -2.027,1.769 -2.027,1.247 -1.848,0.822 -1.489,0.493 -1.13,0.164 -0.634,0 0,0 M 3.494,-0.756 C 3.422,-0.43 3.372,-0.148 3.342,0.089 3.313,0.326 3.298,0.566 3.298,0.809 2.942,0.305 2.468,-0.113 1.876,-0.444 c -0.593,-0.332 -1.26,-0.498 -2,-0.498 -0.937,0 -1.664,0.249 -2.183,0.746 -0.518,0.498 -0.778,1.165 -0.778,2.001 0,0.888 0.384,1.6 1.152,2.133 0.767,0.533 1.803,0.8 3.106,0.8 l 2.125,0 0,1.191 C 3.298,6.617 3.077,7.156 2.636,7.547 2.194,7.938 1.576,8.134 0.782,8.134 0.041,8.134 -0.573,7.947 -1.062,7.574 -1.551,7.2 -1.796,6.744 -1.796,6.205 l -0.977,0.009 -0.018,0.053 c -0.036,0.717 0.292,1.359 0.982,1.925 0.69,0.566 1.569,0.849 2.636,0.849 1.061,0 1.914,-0.27 2.56,-0.809 0.646,-0.54 0.969,-1.313 0.969,-2.321 l 0,-4.729 c 0,-0.338 0.019,-0.666 0.058,-0.986 0.038,-0.32 0.102,-0.638 0.191,-0.952 l -1.111,0 z"
             style="fill:#4d4d56;fill-opacity:1;fill-rule:nonzero;stroke:none"
             id="path86"
             inkscape:connector-curvature="0" /></g><g
           id="g88"
           transform="translate(447.1788,267.5141)"><path
             d="m 0,0 0,-2.462 2.116,0 0,-0.872 -2.116,0 0,-6.267 c 0,-0.628 0.114,-1.074 0.342,-1.337 0.228,-0.264 0.532,-0.396 0.911,-0.396 0.172,0 0.34,0.007 0.503,0.022 0.163,0.015 0.351,0.04 0.564,0.076 l 0.16,-0.791 c -0.178,-0.077 -0.394,-0.137 -0.649,-0.178 -0.255,-0.042 -0.51,-0.062 -0.764,-0.062 -0.676,0 -1.202,0.213 -1.578,0.64 -0.377,0.426 -0.565,1.102 -0.565,2.026 l 0,6.267 -1.662,0 0,0.872 1.662,0 0,2.462 L 0,0 Z"
             style="fill:#4d4d56;fill-opacity:1;fill-rule:nonzero;stroke:none"
             id="path90"
             inkscape:connector-curvature="0" /></g><g
           id="g92"
           transform="translate(454.3,264.3228)"><path
             d="m 0,0 c -0.788,0 -1.449,-0.3 -1.982,-0.9 -0.534,-0.6 -0.845,-1.352 -0.934,-2.256 l 0.018,-0.044 5.636,0 0,0.266 C 2.738,-2.101 2.492,-1.404 2,-0.842 1.508,-0.281 0.841,0 0,0 m 0.133,-9.076 c -1.203,0 -2.203,0.444 -3,1.333 -0.797,0.889 -1.195,2.015 -1.195,3.378 l 0,0.489 c 0,1.375 0.395,2.516 1.186,3.423 0.791,0.906 1.75,1.36 2.876,1.36 1.179,0 2.107,-0.374 2.782,-1.12 C 3.458,-0.96 3.796,-1.956 3.796,-3.2 l 0,-0.907 -6.792,0 0,-0.257 c 0,-1.082 0.288,-1.987 0.863,-2.714 0.574,-0.728 1.33,-1.091 2.266,-1.091 0.664,0 1.23,0.091 1.698,0.275 0.468,0.184 0.868,0.448 1.2,0.791 L 3.485,-7.832 C 3.123,-8.212 2.665,-8.515 2.111,-8.739 1.557,-8.964 0.898,-9.076 0.133,-9.076"
             style="fill:#4d4d56;fill-opacity:1;fill-rule:nonzero;stroke:none"
             id="path94"
             inkscape:connector-curvature="0" /></g><g
           id="g96"
           transform="translate(460.8515,259.9749)"><path
             d="m 0,0 c 0,-1.161 0.237,-2.088 0.711,-2.781 0.474,-0.694 1.179,-1.04 2.116,-1.04 0.687,0 1.261,0.158 1.72,0.475 0.459,0.318 0.813,0.755 1.062,1.311 l 0,4.463 C 5.378,2.99 5.039,3.451 4.591,3.81 4.144,4.168 3.562,4.348 2.845,4.348 1.908,4.348 1.2,3.961 0.72,3.187 0.24,2.413 0,1.413 0,0.187 L 0,0 Z m -1.067,0.188 c 0,1.535 0.328,2.763 0.983,3.684 0.654,0.922 1.565,1.383 2.733,1.383 0.681,0 1.271,-0.15 1.769,-0.449 0.498,-0.3 0.91,-0.722 1.236,-1.267 l 0.124,1.538 0.898,0 0,-9.494 c 0,-1.239 -0.342,-2.216 -1.027,-2.934 -0.684,-0.717 -1.637,-1.075 -2.858,-1.075 -0.462,0 -0.954,0.056 -1.475,0.169 -0.522,0.112 -0.978,0.266 -1.369,0.462 l 0.275,0.898 c 0.379,-0.19 0.779,-0.334 1.2,-0.431 0.421,-0.098 0.871,-0.147 1.351,-0.147 0.937,0 1.644,0.27 2.121,0.809 0.477,0.539 0.715,1.289 0.715,2.249 l 0,1.209 C 5.283,-3.694 4.871,-4.069 4.374,-4.333 3.876,-4.596 3.295,-4.728 2.631,-4.728 c -1.155,0 -2.061,0.429 -2.715,1.289 -0.655,0.859 -0.983,2.006 -0.983,3.44 l 0,0.187 z"
             style="fill:#4d4d56;fill-opacity:1;fill-rule:nonzero;stroke:none"
             id="path98"
             inkscape:connector-curvature="0" /></g><path
           d="m 471.173,255.433 -1.058,0 0,9.618 1.058,0 0,-9.618 z m 0,12.374 -1.058,0 0,1.493 1.058,0 0,-1.493 z"
           style="fill:#4d4d56;fill-opacity:1;fill-rule:nonzero;stroke:none"
           id="path100"
           inkscape:connector-curvature="0" /><g
           id="g102"
           transform="translate(477.2266,264.3228)"><path
             d="m 0,0 c -0.788,0 -1.449,-0.3 -1.982,-0.9 -0.534,-0.6 -0.845,-1.352 -0.934,-2.256 l 0.018,-0.044 5.636,0 0,0.266 C 2.738,-2.101 2.492,-1.404 2,-0.842 1.508,-0.281 0.841,0 0,0 m 0.133,-9.076 c -1.203,0 -2.203,0.444 -3,1.333 -0.797,0.889 -1.195,2.015 -1.195,3.378 l 0,0.489 c 0,1.375 0.395,2.516 1.186,3.423 0.791,0.906 1.75,1.36 2.876,1.36 1.179,0 2.107,-0.374 2.782,-1.12 C 3.458,-0.96 3.796,-1.956 3.796,-3.2 l 0,-0.907 -6.792,0 0,-0.257 c 0,-1.082 0.288,-1.987 0.863,-2.714 0.574,-0.728 1.33,-1.091 2.266,-1.091 0.664,0 1.23,0.091 1.698,0.275 0.468,0.184 0.868,0.448 1.2,0.791 L 3.485,-7.832 C 3.123,-8.212 2.665,-8.515 2.111,-8.739 1.557,-8.964 0.898,-9.076 0.133,-9.076"
             style="fill:#4d4d56;fill-opacity:1;fill-rule:nonzero;stroke:none"
             id="path104"
             inkscape:connector-curvature="0" /></g><g
           id="g106"
           transform="translate(488.5255,257.8826)"><path
             d="m 0,0 c 0,0.449 -0.185,0.843 -0.556,1.18 -0.37,0.336 -1.038,0.611 -2.004,0.824 -1.15,0.249 -1.999,0.578 -2.547,0.987 -0.548,0.409 -0.822,0.987 -0.822,1.733 0,0.735 0.309,1.356 0.929,1.863 0.619,0.507 1.438,0.76 2.458,0.76 1.084,0 1.943,-0.268 2.578,-0.805 C 0.67,6.006 0.972,5.335 0.942,4.529 l -0.018,-0.053 -0.986,0 c 0,0.527 -0.224,0.986 -0.671,1.377 -0.448,0.392 -1.051,0.587 -1.809,0.587 -0.777,0 -1.359,-0.167 -1.747,-0.5 -0.388,-0.333 -0.582,-0.723 -0.582,-1.172 0,-0.442 0.167,-0.807 0.502,-1.096 C -4.034,3.383 -3.366,3.129 -2.365,2.911 -1.221,2.655 -0.364,2.306 0.204,1.863 0.773,1.42 1.058,0.818 1.058,0.057 c 0,-0.802 -0.325,-1.452 -0.974,-1.948 -0.648,-0.497 -1.506,-0.745 -2.573,-0.745 -1.168,0 -2.085,0.279 -2.751,0.836 -0.667,0.557 -0.983,1.22 -0.947,1.991 l 0.018,0.053 0.978,0 c 0.041,-0.69 0.324,-1.191 0.849,-1.504 0.524,-0.313 1.142,-0.469 1.853,-0.469 0.77,0 1.378,0.168 1.822,0.505 C -0.222,-0.887 0,-0.479 0,0"
             style="fill:#4d4d56;fill-opacity:1;fill-rule:nonzero;stroke:none"
             id="path108"
             inkscape:connector-curvature="0" /></g><g
           id="g110"
           transform="translate(447.003,300.2865)"><path
             d="m 0,0 c 0,-5.096 -4.987,-6.512 -9.446,-6.512 -10.123,0 -10.145,6.02 -10.223,9.046 l -16.201,0 0,-10e-4 0,-2.533 c 0,-4.506 -3.236,-6.012 -6.492,-6.012 -3.257,0 -6.493,1.506 -6.493,6.012 l 0,33.846 12.985,0 0,11.772 -12.985,0 0,14.715 -12.825,0 -4.999,-14.715 -18.105,0 -12.401,-44.188 -12.349,44.188 -18.108,0 21.641,-63.461 17.767,0 17.558,51.689 4.508,0 0.001,-31.312 c 0,-14.006 7.876,-21.688 23.805,-21.688 6.531,0 11.29,1.985 14.875,4.792 3.921,-3.056 10.337,-5.293 18.1,-5.293 9.213,0 26.794,2.34 26.794,19.796 0,15.335 -14.835,18.44 -21.903,20.001 -4.921,1.087 -12.995,2.637 -12.995,7.735 0,2.59 1.25,5.969 8.045,5.969 7.528,0 8.967,-5.047 8.967,-7.56 l 16.41,0 c 0,0 0.42,20.643 -25.318,20.643 -21.905,0 -24.972,-12.755 -24.972,-19.052 0,-6.859 3.144,-12.048 8.88,-15.135 C -12.924,5.987 0,8.518 0,0"
             style="fill:#4d4d56;fill-opacity:1;fill-rule:nonzero;stroke:none"
             id="path112"
             inkscape:connector-curvature="0" /></g><g
           id="g114"
           transform="translate(420.9184,135.2311)"><path
             d="m 0,0 c 0,-2.548 -2.493,-3.256 -4.723,-3.256 -5.062,0 -5.073,3.01 -5.112,4.523 l -8.1,0 0,-10e-4 0,-1.266 c 0,-2.253 -1.618,-3.006 -3.246,-3.006 -1.628,0 -3.246,0.753 -3.246,3.006 l 0,16.923 6.492,0 0,5.886 -6.492,0 0,7.358 -6.413,0 -2.499,-7.358 -9.053,0 -6.2,-22.094 -6.175,22.094 -9.054,0 10.821,-31.73 8.883,0 8.779,25.844 2.254,0 0,-15.656 c 0,-7.003 3.939,-10.844 11.903,-10.844 3.266,0 5.645,0.993 7.438,2.396 1.96,-1.528 5.168,-2.646 9.049,-2.646 4.607,0 13.397,1.169 13.397,9.897 0,7.668 -7.417,9.22 -10.951,10.001 -2.46,0.543 -6.498,1.319 -6.498,3.867 0,1.295 0.625,2.985 4.023,2.985 3.764,0 4.484,-2.523 4.484,-3.78 l 8.204,0 c 0,0 0.21,10.322 -12.659,10.322 -10.952,0 -12.485,-6.378 -12.485,-9.527 0,-3.429 1.571,-6.024 4.44,-7.567 C -6.462,2.994 0,4.259 0,0"
             style="fill:#4d4d56;fill-opacity:1;fill-rule:nonzero;stroke:none"
             id="path116"
             inkscape:connector-curvature="0" /></g><path
           d="m 345.899,116.333 97.869,0 0,2.943 -97.869,0 0,-2.943 z"
           style="fill:#4d4d56;fill-opacity:1;fill-rule:nonzero;stroke:none"
           id="path118"
           inkscape:connector-curvature="0" /></g></g></g></svg>